<?xml version="1.0" encoding="UTF-8" standalone="no"?>
<svg width="158px" height="186px" viewBox="0 0 158 186" version="1.1" xmlns="http://www.w3.org/2000/svg" xmlns:xlink="http://www.w3.org/1999/xlink" xmlns:sketch="http://www.bohemiancoding.com/sketch/ns">
    <!-- Generator: Sketch 3.4.4 (17249) - http://www.bohemiancoding.com/sketch -->
    <title>Untitled</title>
    <desc>Created with Sketch.</desc>
    <defs></defs>
    <g id="Page-1" stroke="none" stroke-width="1" fill="none" fill-rule="evenodd" sketch:type="MSPage">
        <path d="M94.7398813,32.194103 C105.236053,43.5531723 101.223898,34.6647015 103.370521,32.9908243 C105.517144,31.3169471 105.619308,27.8674749 103.598716,25.2862164 C101.578117,22.7049536 98.1999229,21.9693765 96.0533024,23.6432558 C93.9066821,25.3171349 84.2437111,20.835025 94.7398813,32.194103 L94.7398813,32.194103 L94.7398813,32.194103 Z" id="Stroke-16" stroke="#190600" fill="#8A4C38" sketch:type="MSShapeGroup"></path>
        <path d="M56.5677305,59.263907 C74.264045,80.0245617 88.4578714,104.263066 102.153698,94.8795677 C123.197009,80.4619778 112.308578,45.8695236 95.5827139,28.0997087 C82.4082638,14.1029703 68.2976532,4.30755797 56.6731086,2.40233175 C47.9945207,0.979940067 40.8151051,-0.932233561 30.7408882,11.9621763 C23.1001966,21.7418158 38.87143,38.5032506 56.5677305,59.263907 L56.5677305,59.263907 Z" id="Stroke-20" stroke="#190600" fill="#8A4C38" sketch:type="MSShapeGroup"></path>
        <path d="M10.0318181,114.55002 C15.7503495,119.017826 32.7934456,122.353666 51.2649687,116.127487 C63.7935694,111.904481 77.3415805,102.159421 87.0604683,89.7198115 C90.7138652,69.1524587 44.8221437,26.5426574 34.1604402,26.7396335 C26.3161694,30.1973441 9.56626827,49.2926704 4.70053571,61.1597502 C-2.13677725,77.8353357 0.434618854,107.051866 10.0318181,114.55002 L10.0318181,114.55002 Z" id="Stroke-24" stroke="#190600" fill="#C17547" sketch:type="MSShapeGroup"></path>
        <path d="M95.01928,185.22094 C102.2762,185.22094 117.76009,177.35684 128.48263,161.07834 C135.75536,150.03719 140.43168,134.01699 140.43168,118.2309 C130.64807,99.77435 68.25169,94.451133 59.971424,101.170352 C55.9188336,108.72448 54.475988,134.08407 57.947842,146.4311 C62.826481,163.78111 82.84026,185.22094 95.01928,185.22094 L95.01928,185.22094 Z" id="Stroke-32" stroke="#190600" fill="#C17547" sketch:type="MSShapeGroup"></path>
        <path d="M97.65258,113.00445 C124.379,118.46913 150.4866,128.83074 155.502,113.00445 C163.208,88.68768 133.33056,68.132042 109.21021,64.426707 C90.21135,61.508128 73.06138,62.4765969 62.72814,68.132042 C55.013608,72.354254 48.1789,75.26753 48.1789,91.63077 C48.1789,104.04131 70.92617,107.53976 97.65258,113.00445 L97.65258,113.00445 Z" id="Stroke-28" stroke="#190600" fill="#8A4C38" sketch:type="MSShapeGroup"></path>
    </g>
</svg>