<?xml version="1.0" encoding="UTF-8" standalone="no"?>
<svg width="43px" height="46px" viewBox="0 0 43 46" version="1.1" xmlns="http://www.w3.org/2000/svg" xmlns:xlink="http://www.w3.org/1999/xlink" xmlns:sketch="http://www.bohemiancoding.com/sketch/ns">
    <!-- Generator: Sketch 3.4.4 (17249) - http://www.bohemiancoding.com/sketch -->
    <title>Untitled</title>
    <desc>Created with Sketch.</desc>
    <defs>
        <path id="path-1" d="M6.2185,5.347 C5.5205,4.092 5.3314,3.037 5.9753,2.225 C7.9788,-0.301 9.4014,0.07 11.1214,0.344 C13.1992,0.675 15.6747,2.26 18.0517,4.57 C18.3471,4.55 18.7502,4.609 18.9193,4.479 C19.3457,4.15 20.0152,4.293 20.4146,4.796 C20.814,5.3 20.7921,5.975 20.3657,6.303 C20.1915,6.437 20.2205,6.806 20.1743,7.045 C22.6204,10.695 23.668,15.986 20.0952,18.404 C18.9926,19.15 17.8765,18.816 16.7058,17.886 C14.8119,20.091 12.3145,21.806 9.9954,22.582 C6.3301,23.808 2.9525,23.164 1.8208,22.293 C-0.0785,20.831 -0.5745,15.12 0.789,11.856 C1.6778,9.729 4.5461,6.412 6.2185,5.347 L6.2185,5.347 L6.2185,5.347 L6.2185,5.347 Z"></path>
        <path id="path-3" d="M18.6238,11.727 C20.1281,11.75 21.2163,11.336 21.6187,10.08 C23.1437,5.316 17.2309,1.29 12.4575,0.564 C8.6976,-0.008 5.3036,0.182 3.2586,1.29 C1.7319,2.117 0.3793,2.688 0.3793,5.893 C0.3793,6.923 1.1878,7.64 2.522,8.205 C1.8699,10.059 1.6833,14.412 2.3126,16.628 C3.2781,20.0262 7.2388,24.226 9.6491,24.226 C11.0852,24.226 14.1495,22.6855 16.2715,19.4968 C17.6142,17.479 18.5097,14.613 18.6238,11.727 L18.6238,11.727 L18.6238,11.727 Z"></path>
    </defs>
    <g id="Page-1" stroke="none" stroke-width="1" fill="none" fill-rule="evenodd" sketch:type="MSPage">
        <g id="Group-36" sketch:type="MSLayerGroup" transform="translate(5.000000, 5.000000)">
            <mask id="mask-2" sketch:name="Clip 35" fill="white">
                <use xlink:href="#path-1"></use>
            </mask>
            <g id="Clip-35"></g>
            <path d="M-4.985,-4.852 L27.4062,-4.852 L27.4062,28.261 L-4.985,28.261 L-4.985,-4.852 Z" id="Fill-34" fill="#190600" sketch:type="MSShapeGroup" mask="url(#mask-2)"></path>
        </g>
        <g id="Group-39" sketch:type="MSLayerGroup" transform="translate(16.000000, 16.000000)">
            <mask id="mask-4" sketch:name="Clip 38" fill="white">
                <use xlink:href="#path-3"></use>
            </mask>
            <g id="Clip-38"></g>
            <path d="M-4.6207,-4.75 L26.8634,-4.75 L26.8634,29.226 L-4.6207,29.226 L-4.6207,-4.75 Z" id="Fill-37" fill="#FFF5F0" sketch:type="MSShapeGroup" mask="url(#mask-4)"></path>
        </g>
    </g>
</svg>